<svg width="354" height="354" viewBox="0 0 354 354" fill="none" xmlns="http://www.w3.org/2000/svg">
<path d="M325.007 96.6774C341.014 96.6774 354 83.544 354 67.3898C354 48.3387 343.433 25.1694 325.019 0C306.894 24.7859 296.015 48.3387 296.015 67.3898C296.015 83.544 308.989 96.6774 325.007 96.6774V96.6774ZM325.019 20.9804C336.306 39.0285 342.2 54.8877 342.2 67.3898C342.2 77.0363 334.483 84.8774 325.007 84.8774C315.532 84.8774 307.815 77.0363 307.815 67.3898C307.815 54.9113 313.721 39.0521 325.019 20.9804" fill="#74AAED" fill-opacity="0.38"/>
<path d="M250.272 101.828C245.446 88.6829 237.327 74.4049 226.342 59.3953C218.837 69.6613 212.659 79.6913 207.898 89.3083C199.509 87.8849 191.033 87.0393 182.528 86.7772V64.5283C182.528 63.0605 181.945 61.6529 180.907 60.615C179.869 59.5772 178.462 58.9941 176.994 58.9941C175.526 58.9941 174.119 59.5772 173.081 60.615C172.043 61.6529 171.46 63.0605 171.46 64.5283V86.7772C163.158 87.068 154.886 87.9156 146.698 89.3142C149.82 86.5771 152.323 83.206 154.04 79.4255C155.758 75.645 156.65 71.542 156.657 67.3898C156.657 48.3387 146.09 25.1694 127.676 0C109.551 24.7859 98.6715 48.3387 98.6715 67.3898C98.6634 73.8394 100.793 80.1098 104.726 85.2209C108.66 90.332 114.176 93.9956 120.413 95.639C97.3563 103.018 76.0042 114.925 57.6076 130.661C57.7728 129.387 57.9911 128.124 57.9911 126.809C57.9911 107.758 47.4124 84.5647 28.9985 59.3953C10.8796 84.1812 0 107.752 0 126.803C0 142.969 12.9741 156.085 28.9926 156.085C30.5797 156.085 32.096 155.854 33.6182 155.613C17.5584 175.903 5.8115 199.621 0 225.551C5.33596 220.062 11.7219 215.703 18.7777 212.733C25.8334 209.763 33.4146 208.243 41.0699 208.264C49.8214 208.234 58.462 210.222 66.3205 214.074C74.179 217.925 81.0439 223.537 86.3818 230.472C91.721 223.538 98.5861 217.928 106.444 214.076C114.303 210.225 122.943 208.236 131.694 208.264C146.547 208.243 160.82 214.025 171.472 224.377V276.563H165.937V309.75C165.93 315.616 163.596 321.239 159.449 325.386C155.301 329.534 149.678 331.867 143.812 331.875C137.946 331.869 132.322 329.536 128.175 325.388C124.027 321.24 121.694 315.616 121.687 309.75C121.594 306.879 120.387 304.156 118.323 302.158C116.258 300.16 113.498 299.043 110.625 299.043C107.752 299.043 104.992 300.16 102.927 302.158C100.863 304.156 99.6562 306.879 99.5624 309.75C99.5624 334.147 119.404 354 143.812 354C168.209 354 188.062 334.147 188.062 309.75V276.563H182.528V224.371C193.179 214.019 207.453 208.239 222.306 208.264C231.056 208.235 239.696 210.224 247.553 214.075C255.411 217.927 262.275 223.537 267.612 230.472C272.951 223.538 279.816 217.928 287.675 214.076C295.533 210.225 304.173 208.236 312.924 208.264C320.58 208.243 328.162 209.763 335.219 212.733C342.276 215.702 348.663 220.062 354 225.551C341.545 170.014 302.345 124.331 250.272 101.828ZM110.477 67.3898C110.477 54.9113 116.383 39.0521 127.682 20.9804C138.969 39.0344 144.863 54.8877 144.863 67.3898C144.863 77.0363 137.145 84.8774 127.67 84.8774C118.195 84.8774 110.477 77.0363 110.477 67.3898V67.3898ZM11.8 126.803C11.8 114.513 17.8298 98.3825 29.0221 80.3934C40.3029 98.4474 46.197 114.295 46.197 126.803C46.197 136.438 38.4798 144.285 28.9926 144.285C19.5172 144.285 11.8 136.438 11.8 126.803V126.803ZM226.359 80.3934C237.64 98.4474 243.534 114.295 243.534 126.803C243.534 136.438 235.817 144.285 226.33 144.285C216.854 144.285 209.137 136.438 209.137 126.803C209.137 114.513 215.173 98.3825 226.359 80.3934Z" fill="#74AAED" fill-opacity="0.38"/>
</svg>
